<svg width="129" height="128" viewBox="0 0 129 128" fill="none" xmlns="http://www.w3.org/2000/svg">
<g id="Bold / Essentional, UI / Box Minimalistic">
<g id="Vector">
<path d="M94.2481 23.6349L83.5815 18.0372C74.2181 13.1236 69.5364 10.6667 64.5003 10.6667C59.4642 10.6667 54.7825 13.1236 45.4192 18.0372L34.7526 23.6348C25.2926 28.5992 19.7318 31.5174 16.2854 35.4205L64.5003 59.5279L112.715 35.4205C109.269 31.5174 103.708 28.5992 94.2481 23.6349Z" fill="#8D9095"/>
<path d="M116.492 42.4766L68.5003 66.4722V116.822C72.3292 115.868 76.6857 113.582 83.5815 109.963L94.2481 104.365C105.724 98.3432 111.461 95.3322 114.648 89.9215C117.834 84.5108 117.834 77.7779 117.834 64.312V63.6881C117.834 53.594 117.834 47.2831 116.492 42.4766Z" fill="#8D9095"/>
<path d="M60.5003 116.822V66.4722L12.5091 42.4766C11.167 47.2831 11.167 53.594 11.167 63.6881V64.312C11.167 77.7779 11.167 84.5108 14.3531 89.9215C17.5392 95.3322 23.277 98.3432 34.7526 104.365L45.4192 109.963C52.3149 113.582 56.6714 115.868 60.5003 116.822Z" fill="#8D9095"/>
</g>
</g>
</svg>
