<svg width="19" height="19" viewBox="0 0 19 19" fill="none" xmlns="http://www.w3.org/2000/svg">
<g id="Linear / Messages, Conversation / Pen">
<path id="Vector" d="M11.27 3.55899L11.9652 2.86383C13.117 1.71206 14.9844 1.71206 16.1362 2.86383C17.2879 4.01561 17.2879 5.88301 16.1362 7.03479L15.441 7.72995M11.27 3.55899C11.27 3.55899 11.3569 5.03621 12.6604 6.33963C13.9638 7.64306 15.441 7.72995 15.441 7.72995M11.27 3.55899L4.87912 9.94992C4.44625 10.3828 4.22981 10.5992 4.04367 10.8379C3.8241 11.1194 3.63585 11.424 3.48226 11.7463C3.35205 12.0195 3.25526 12.3099 3.06167 12.8906L2.24136 15.3516M15.441 7.72995L9.05008 14.1209C8.6172 14.5538 8.40077 14.7702 8.16212 14.9563C7.88061 15.1759 7.57602 15.3641 7.25373 15.5177C6.98052 15.6479 6.69014 15.7447 6.10938 15.9383L3.64844 16.7586M3.64844 16.7586L3.04688 16.9592C2.76108 17.0544 2.44599 16.98 2.23297 16.767C2.01995 16.554 1.94557 16.2389 2.04084 15.9531L2.24136 15.3516M3.64844 16.7586L2.24136 15.3516" stroke="#2C364E" stroke-width="1.5"/>
</g>
</svg>
