<svg width="18" height="18" viewBox="0 0 18 18" fill="none" xmlns="http://www.w3.org/2000/svg">
<path d="M13.6482 2.69277L11.9815 1.81814C10.5185 1.05038 9.78698 0.666504 9.00008 0.666504C8.21319 0.666504 7.48168 1.05038 6.01866 1.81814L4.35199 2.69277C2.87387 3.46845 2.005 3.92442 1.46649 4.53427L9.00008 8.30107L16.5337 4.53427C15.9952 3.92442 15.1263 3.46845 13.6482 2.69277Z" fill="#424B54"/>
<path d="M17.1237 5.63679L9.62508 9.38611V17.2532C10.2233 17.1042 10.9041 16.747 11.9815 16.1815L13.6482 15.3069C15.4412 14.366 16.3378 13.8955 16.8356 13.0501C17.3334 12.2046 17.3334 11.1526 17.3334 9.04858V8.9511C17.3334 7.37388 17.3334 6.38782 17.1237 5.63679Z" fill="#424B54"/>
<path d="M8.37508 17.2532V9.38611L0.876447 5.63679C0.666748 6.38782 0.666748 7.37388 0.666748 8.9511V9.04858C0.666748 11.1526 0.666748 12.2046 1.16458 13.0501C1.66241 13.8955 2.55894 14.366 4.35199 15.3069L6.01866 16.1815C7.09611 16.747 7.77682 17.1042 8.37508 17.2532Z" fill="#424B54"/>
</svg>
