<svg width="1440" height="16" viewBox="0 0 1440 16" fill="none" xmlns="http://www.w3.org/2000/svg">
<path d="M-16.3342 11.5802L-29 0H41L28.3342 11.5802C25.5225 14.1508 21.2881 14.3822 18.2131 12.133L10.7229 6.65447C7.91033 4.59727 4.08968 4.59727 1.2771 6.65447L-6.21313 12.133C-9.2881 14.3822 -13.5225 14.1508 -16.3342 11.5802Z" fill="#DE3C4B"/>
<path d="M17.6658 11.5802L5 0H75L62.3342 11.5802C59.5225 14.1508 55.2881 14.3822 52.2131 12.133L44.7229 6.65447C41.9103 4.59727 38.0897 4.59727 35.2771 6.65447L27.7869 12.133C24.7119 14.3822 20.4775 14.1508 17.6658 11.5802Z" fill="#DE3C4B"/>
<path d="M51.6658 11.5802L39 0H109L96.3342 11.5802C93.5225 14.1508 89.2881 14.3822 86.2131 12.133L78.7229 6.65447C75.9103 4.59727 72.0897 4.59727 69.2771 6.65447L61.7869 12.133C58.7119 14.3822 54.4775 14.1508 51.6658 11.5802Z" fill="#DE3C4B"/>
<path d="M85.6658 11.5802L73 0H143L130.334 11.5802C127.523 14.1508 123.288 14.3822 120.213 12.133L112.723 6.65447C109.91 4.59727 106.09 4.59727 103.277 6.65447L95.7869 12.133C92.7119 14.3822 88.4775 14.1508 85.6658 11.5802Z" fill="#DE3C4B"/>
<path d="M119.666 11.5802L107 0H177L164.334 11.5802C161.523 14.1508 157.288 14.3822 154.213 12.133L146.723 6.65447C143.91 4.59727 140.09 4.59727 137.277 6.65447L129.787 12.133C126.712 14.3822 122.477 14.1508 119.666 11.5802Z" fill="#DE3C4B"/>
<path d="M153.666 11.5802L141 0H211L198.334 11.5802C195.523 14.1508 191.288 14.3822 188.213 12.133L180.723 6.65447C177.91 4.59727 174.09 4.59727 171.277 6.65447L163.787 12.133C160.712 14.3822 156.477 14.1508 153.666 11.5802Z" fill="#DE3C4B"/>
<path d="M187.666 11.5802L175 0H245L232.334 11.5802C229.523 14.1508 225.288 14.3822 222.213 12.133L214.723 6.65447C211.91 4.59727 208.09 4.59727 205.277 6.65447L197.787 12.133C194.712 14.3822 190.477 14.1508 187.666 11.5802Z" fill="#DE3C4B"/>
<path d="M221.666 11.5802L209 0H279L266.334 11.5802C263.523 14.1508 259.288 14.3822 256.213 12.133L248.723 6.65447C245.91 4.59727 242.09 4.59727 239.277 6.65447L231.787 12.133C228.712 14.3822 224.477 14.1508 221.666 11.5802Z" fill="#DE3C4B"/>
<path d="M255.666 11.5802L243 0H313L300.334 11.5802C297.523 14.1508 293.288 14.3822 290.213 12.133L282.723 6.65447C279.91 4.59727 276.09 4.59727 273.277 6.65447L265.787 12.133C262.712 14.3822 258.477 14.1508 255.666 11.5802Z" fill="#DE3C4B"/>
<path d="M289.666 11.5802L277 0H347L334.334 11.5802C331.523 14.1508 327.288 14.3822 324.213 12.133L316.723 6.65447C313.91 4.59727 310.09 4.59727 307.277 6.65447L299.787 12.133C296.712 14.3822 292.477 14.1508 289.666 11.5802Z" fill="#DE3C4B"/>
<path d="M323.666 11.5802L311 0H381L368.334 11.5802C365.523 14.1508 361.288 14.3822 358.213 12.133L350.723 6.65447C347.91 4.59727 344.09 4.59727 341.277 6.65447L333.787 12.133C330.712 14.3822 326.477 14.1508 323.666 11.5802Z" fill="#DE3C4B"/>
<path d="M357.666 11.5802L345 0H415L402.334 11.5802C399.523 14.1508 395.288 14.3822 392.213 12.133L384.723 6.65447C381.91 4.59727 378.09 4.59727 375.277 6.65447L367.787 12.133C364.712 14.3822 360.477 14.1508 357.666 11.5802Z" fill="#DE3C4B"/>
<path d="M391.666 11.5802L379 0H449L436.334 11.5802C433.523 14.1508 429.288 14.3822 426.213 12.133L418.723 6.65447C415.91 4.59727 412.09 4.59727 409.277 6.65447L401.787 12.133C398.712 14.3822 394.477 14.1508 391.666 11.5802Z" fill="#DE3C4B"/>
<path d="M425.666 11.5802L413 0H483L470.334 11.5802C467.523 14.1508 463.288 14.3822 460.213 12.133L452.723 6.65447C449.91 4.59727 446.09 4.59727 443.277 6.65447L435.787 12.133C432.712 14.3822 428.477 14.1508 425.666 11.5802Z" fill="#DE3C4B"/>
<path d="M459.666 11.5802L447 0H517L504.334 11.5802C501.523 14.1508 497.288 14.3822 494.213 12.133L486.723 6.65447C483.91 4.59727 480.09 4.59727 477.277 6.65447L469.787 12.133C466.712 14.3822 462.477 14.1508 459.666 11.5802Z" fill="#DE3C4B"/>
<path d="M493.666 11.5802L481 0H551L538.334 11.5802C535.523 14.1508 531.288 14.3822 528.213 12.133L520.723 6.65447C517.91 4.59727 514.09 4.59727 511.277 6.65447L503.787 12.133C500.712 14.3822 496.477 14.1508 493.666 11.5802Z" fill="#DE3C4B"/>
<path d="M527.666 11.5802L515 0H585L572.334 11.5802C569.523 14.1508 565.288 14.3822 562.213 12.133L554.723 6.65447C551.91 4.59727 548.09 4.59727 545.277 6.65447L537.787 12.133C534.712 14.3822 530.477 14.1508 527.666 11.5802Z" fill="#DE3C4B"/>
<path d="M561.666 11.5802L549 0H619L606.334 11.5802C603.523 14.1508 599.288 14.3822 596.213 12.133L588.723 6.65447C585.91 4.59727 582.09 4.59727 579.277 6.65447L571.787 12.133C568.712 14.3822 564.477 14.1508 561.666 11.5802Z" fill="#DE3C4B"/>
<path d="M595.666 11.5802L583 0H653L640.334 11.5802C637.523 14.1508 633.288 14.3822 630.213 12.133L622.723 6.65447C619.91 4.59727 616.09 4.59727 613.277 6.65447L605.787 12.133C602.712 14.3822 598.477 14.1508 595.666 11.5802Z" fill="#DE3C4B"/>
<path d="M629.666 11.5802L617 0H687L674.334 11.5802C671.523 14.1508 667.288 14.3822 664.213 12.133L656.723 6.65447C653.91 4.59727 650.09 4.59727 647.277 6.65447L639.787 12.133C636.712 14.3822 632.477 14.1508 629.666 11.5802Z" fill="#DE3C4B"/>
<path d="M663.666 11.5802L651 0H721L708.334 11.5802C705.523 14.1508 701.288 14.3822 698.213 12.133L690.723 6.65447C687.91 4.59727 684.09 4.59727 681.277 6.65447L673.787 12.133C670.712 14.3822 666.477 14.1508 663.666 11.5802Z" fill="#DE3C4B"/>
<path d="M697.666 11.5802L685 0H755L742.334 11.5802C739.523 14.1508 735.288 14.3822 732.213 12.133L724.723 6.65447C721.91 4.59727 718.09 4.59727 715.277 6.65447L707.787 12.133C704.712 14.3822 700.477 14.1508 697.666 11.5802Z" fill="#DE3C4B"/>
<path d="M731.666 11.5802L719 0H789L776.334 11.5802C773.523 14.1508 769.288 14.3822 766.213 12.133L758.723 6.65447C755.91 4.59727 752.09 4.59727 749.277 6.65447L741.787 12.133C738.712 14.3822 734.477 14.1508 731.666 11.5802Z" fill="#DE3C4B"/>
<path d="M765.666 11.5802L753 0H823L810.334 11.5802C807.523 14.1508 803.288 14.3822 800.213 12.133L792.723 6.65447C789.91 4.59727 786.09 4.59727 783.277 6.65447L775.787 12.133C772.712 14.3822 768.477 14.1508 765.666 11.5802Z" fill="#DE3C4B"/>
<path d="M799.666 11.5802L787 0H857L844.334 11.5802C841.523 14.1508 837.288 14.3822 834.213 12.133L826.723 6.65447C823.91 4.59727 820.09 4.59727 817.277 6.65447L809.787 12.133C806.712 14.3822 802.477 14.1508 799.666 11.5802Z" fill="#DE3C4B"/>
<path d="M833.666 11.5802L821 0H891L878.334 11.5802C875.523 14.1508 871.288 14.3822 868.213 12.133L860.723 6.65447C857.91 4.59727 854.09 4.59727 851.277 6.65447L843.787 12.133C840.712 14.3822 836.477 14.1508 833.666 11.5802Z" fill="#DE3C4B"/>
<path d="M867.666 11.5802L855 0H925L912.334 11.5802C909.523 14.1508 905.288 14.3822 902.213 12.133L894.723 6.65447C891.91 4.59727 888.09 4.59727 885.277 6.65447L877.787 12.133C874.712 14.3822 870.477 14.1508 867.666 11.5802Z" fill="#DE3C4B"/>
<path d="M901.666 11.5802L889 0H959L946.334 11.5802C943.523 14.1508 939.288 14.3822 936.213 12.133L928.723 6.65447C925.91 4.59727 922.09 4.59727 919.277 6.65447L911.787 12.133C908.712 14.3822 904.477 14.1508 901.666 11.5802Z" fill="#DE3C4B"/>
<path d="M935.666 11.5802L923 0H993L980.334 11.5802C977.523 14.1508 973.288 14.3822 970.213 12.133L962.723 6.65447C959.91 4.59727 956.09 4.59727 953.277 6.65447L945.787 12.133C942.712 14.3822 938.477 14.1508 935.666 11.5802Z" fill="#DE3C4B"/>
<path d="M969.666 11.5802L957 0H1027L1014.33 11.5802C1011.52 14.1508 1007.29 14.3822 1004.21 12.133L996.723 6.65447C993.91 4.59727 990.09 4.59727 987.277 6.65447L979.787 12.133C976.712 14.3822 972.477 14.1508 969.666 11.5802Z" fill="#DE3C4B"/>
<path d="M1003.67 11.5802L991 0H1061L1048.33 11.5802C1045.52 14.1508 1041.29 14.3822 1038.21 12.133L1030.72 6.65447C1027.91 4.59727 1024.09 4.59727 1021.28 6.65447L1013.79 12.133C1010.71 14.3822 1006.48 14.1508 1003.67 11.5802Z" fill="#DE3C4B"/>
<path d="M1037.67 11.5802L1025 0H1095L1082.33 11.5802C1079.52 14.1508 1075.29 14.3822 1072.21 12.133L1064.72 6.65447C1061.91 4.59727 1058.09 4.59727 1055.28 6.65447L1047.79 12.133C1044.71 14.3822 1040.48 14.1508 1037.67 11.5802Z" fill="#DE3C4B"/>
<path d="M1071.67 11.5802L1059 0H1129L1116.33 11.5802C1113.52 14.1508 1109.29 14.3822 1106.21 12.133L1098.72 6.65447C1095.91 4.59727 1092.09 4.59727 1089.28 6.65447L1081.79 12.133C1078.71 14.3822 1074.48 14.1508 1071.67 11.5802Z" fill="#DE3C4B"/>
<path d="M1105.67 11.5802L1093 0H1163L1150.33 11.5802C1147.52 14.1508 1143.29 14.3822 1140.21 12.133L1132.72 6.65447C1129.91 4.59727 1126.09 4.59727 1123.28 6.65447L1115.79 12.133C1112.71 14.3822 1108.48 14.1508 1105.67 11.5802Z" fill="#DE3C4B"/>
<path d="M1139.67 11.5802L1127 0H1197L1184.33 11.5802C1181.52 14.1508 1177.29 14.3822 1174.21 12.133L1166.72 6.65447C1163.91 4.59727 1160.09 4.59727 1157.28 6.65447L1149.79 12.133C1146.71 14.3822 1142.48 14.1508 1139.67 11.5802Z" fill="#DE3C4B"/>
<path d="M1173.67 11.5802L1161 0H1231L1218.33 11.5802C1215.52 14.1508 1211.29 14.3822 1208.21 12.133L1200.72 6.65447C1197.91 4.59727 1194.09 4.59727 1191.28 6.65447L1183.79 12.133C1180.71 14.3822 1176.48 14.1508 1173.67 11.5802Z" fill="#DE3C4B"/>
<path d="M1207.67 11.5802L1195 0H1265L1252.33 11.5802C1249.52 14.1508 1245.29 14.3822 1242.21 12.133L1234.72 6.65447C1231.91 4.59727 1228.09 4.59727 1225.28 6.65447L1217.79 12.133C1214.71 14.3822 1210.48 14.1508 1207.67 11.5802Z" fill="#DE3C4B"/>
<path d="M1241.67 11.5802L1229 0H1299L1286.33 11.5802C1283.52 14.1508 1279.29 14.3822 1276.21 12.133L1268.72 6.65447C1265.91 4.59727 1262.09 4.59727 1259.28 6.65447L1251.79 12.133C1248.71 14.3822 1244.48 14.1508 1241.67 11.5802Z" fill="#DE3C4B"/>
<path d="M1275.67 11.5802L1263 0H1333L1320.33 11.5802C1317.52 14.1508 1313.29 14.3822 1310.21 12.133L1302.72 6.65447C1299.91 4.59727 1296.09 4.59727 1293.28 6.65447L1285.79 12.133C1282.71 14.3822 1278.48 14.1508 1275.67 11.5802Z" fill="#DE3C4B"/>
<path d="M1309.67 11.5802L1297 0H1367L1354.33 11.5802C1351.52 14.1508 1347.29 14.3822 1344.21 12.133L1336.72 6.65447C1333.91 4.59727 1330.09 4.59727 1327.28 6.65447L1319.79 12.133C1316.71 14.3822 1312.48 14.1508 1309.67 11.5802Z" fill="#DE3C4B"/>
<path d="M1343.67 11.5802L1331 0H1401L1388.33 11.5802C1385.52 14.1508 1381.29 14.3822 1378.21 12.133L1370.72 6.65447C1367.91 4.59727 1364.09 4.59727 1361.28 6.65447L1353.79 12.133C1350.71 14.3822 1346.48 14.1508 1343.67 11.5802Z" fill="#DE3C4B"/>
<path d="M1377.67 11.5802L1365 0H1435L1422.33 11.5802C1419.52 14.1508 1415.29 14.3822 1412.21 12.133L1404.72 6.65447C1401.91 4.59727 1398.09 4.59727 1395.28 6.65447L1387.79 12.133C1384.71 14.3822 1380.48 14.1508 1377.67 11.5802Z" fill="#DE3C4B"/>
<path d="M1411.67 11.5802L1399 0H1469L1456.33 11.5802C1453.52 14.1508 1449.29 14.3822 1446.21 12.133L1438.72 6.65447C1435.91 4.59727 1432.09 4.59727 1429.28 6.65447L1421.79 12.133C1418.71 14.3822 1414.48 14.1508 1411.67 11.5802Z" fill="#DE3C4B"/>
</svg>
