<svg width="1440" height="16" viewBox="0 0 1440 16" fill="none" xmlns="http://www.w3.org/2000/svg">
<path d="M-16.3342 4.41984L-29 16H41L28.3342 4.41984C25.5225 1.84915 21.2881 1.61784 18.2131 3.86696L10.7229 9.34553C7.91033 11.4027 4.08968 11.4027 1.2771 9.34553L-6.21313 3.86697C-9.2881 1.61785 -13.5225 1.84916 -16.3342 4.41984Z" fill="#DE3C4B"/>
<path d="M17.6658 4.41984L5 16H75L62.3342 4.41984C59.5225 1.84915 55.2881 1.61784 52.2131 3.86696L44.7229 9.34553C41.9103 11.4027 38.0897 11.4027 35.2771 9.34553L27.7869 3.86697C24.7119 1.61785 20.4775 1.84916 17.6658 4.41984Z" fill="#DE3C4B"/>
<path d="M51.6658 4.41984L39 16H109L96.3342 4.41984C93.5225 1.84915 89.2881 1.61784 86.2131 3.86696L78.7229 9.34553C75.9103 11.4027 72.0897 11.4027 69.2771 9.34553L61.7869 3.86697C58.7119 1.61785 54.4775 1.84916 51.6658 4.41984Z" fill="#DE3C4B"/>
<path d="M85.6658 4.41984L73 16H143L130.334 4.41984C127.523 1.84915 123.288 1.61784 120.213 3.86696L112.723 9.34553C109.91 11.4027 106.09 11.4027 103.277 9.34553L95.7869 3.86697C92.7119 1.61785 88.4775 1.84916 85.6658 4.41984Z" fill="#DE3C4B"/>
<path d="M119.666 4.41984L107 16H177L164.334 4.41984C161.523 1.84915 157.288 1.61784 154.213 3.86696L146.723 9.34553C143.91 11.4027 140.09 11.4027 137.277 9.34553L129.787 3.86697C126.712 1.61785 122.477 1.84916 119.666 4.41984Z" fill="#DE3C4B"/>
<path d="M153.666 4.41984L141 16H211L198.334 4.41984C195.523 1.84915 191.288 1.61784 188.213 3.86696L180.723 9.34553C177.91 11.4027 174.09 11.4027 171.277 9.34553L163.787 3.86697C160.712 1.61785 156.477 1.84916 153.666 4.41984Z" fill="#DE3C4B"/>
<path d="M187.666 4.41984L175 16H245L232.334 4.41984C229.523 1.84915 225.288 1.61784 222.213 3.86696L214.723 9.34553C211.91 11.4027 208.09 11.4027 205.277 9.34553L197.787 3.86697C194.712 1.61785 190.477 1.84916 187.666 4.41984Z" fill="#DE3C4B"/>
<path d="M221.666 4.41984L209 16H279L266.334 4.41984C263.523 1.84915 259.288 1.61784 256.213 3.86696L248.723 9.34553C245.91 11.4027 242.09 11.4027 239.277 9.34553L231.787 3.86697C228.712 1.61785 224.477 1.84916 221.666 4.41984Z" fill="#DE3C4B"/>
<path d="M255.666 4.41984L243 16H313L300.334 4.41984C297.523 1.84915 293.288 1.61784 290.213 3.86696L282.723 9.34553C279.91 11.4027 276.09 11.4027 273.277 9.34553L265.787 3.86697C262.712 1.61785 258.477 1.84916 255.666 4.41984Z" fill="#DE3C4B"/>
<path d="M289.666 4.41984L277 16H347L334.334 4.41984C331.523 1.84915 327.288 1.61784 324.213 3.86696L316.723 9.34553C313.91 11.4027 310.09 11.4027 307.277 9.34553L299.787 3.86697C296.712 1.61785 292.477 1.84916 289.666 4.41984Z" fill="#DE3C4B"/>
<path d="M323.666 4.41984L311 16H381L368.334 4.41984C365.523 1.84915 361.288 1.61784 358.213 3.86696L350.723 9.34553C347.91 11.4027 344.09 11.4027 341.277 9.34553L333.787 3.86697C330.712 1.61785 326.477 1.84916 323.666 4.41984Z" fill="#DE3C4B"/>
<path d="M357.666 4.41984L345 16H415L402.334 4.41984C399.523 1.84915 395.288 1.61784 392.213 3.86696L384.723 9.34553C381.91 11.4027 378.09 11.4027 375.277 9.34553L367.787 3.86697C364.712 1.61785 360.477 1.84916 357.666 4.41984Z" fill="#DE3C4B"/>
<path d="M391.666 4.41984L379 16H449L436.334 4.41984C433.523 1.84915 429.288 1.61784 426.213 3.86696L418.723 9.34553C415.91 11.4027 412.09 11.4027 409.277 9.34553L401.787 3.86697C398.712 1.61785 394.477 1.84916 391.666 4.41984Z" fill="#DE3C4B"/>
<path d="M425.666 4.41984L413 16H483L470.334 4.41984C467.523 1.84915 463.288 1.61784 460.213 3.86696L452.723 9.34553C449.91 11.4027 446.09 11.4027 443.277 9.34553L435.787 3.86697C432.712 1.61785 428.477 1.84916 425.666 4.41984Z" fill="#DE3C4B"/>
<path d="M459.666 4.41984L447 16H517L504.334 4.41984C501.523 1.84915 497.288 1.61784 494.213 3.86696L486.723 9.34553C483.91 11.4027 480.09 11.4027 477.277 9.34553L469.787 3.86697C466.712 1.61785 462.477 1.84916 459.666 4.41984Z" fill="#DE3C4B"/>
<path d="M493.666 4.41984L481 16H551L538.334 4.41984C535.523 1.84915 531.288 1.61784 528.213 3.86696L520.723 9.34553C517.91 11.4027 514.09 11.4027 511.277 9.34553L503.787 3.86697C500.712 1.61785 496.477 1.84916 493.666 4.41984Z" fill="#DE3C4B"/>
<path d="M527.666 4.41984L515 16H585L572.334 4.41984C569.523 1.84915 565.288 1.61784 562.213 3.86696L554.723 9.34553C551.91 11.4027 548.09 11.4027 545.277 9.34553L537.787 3.86697C534.712 1.61785 530.477 1.84916 527.666 4.41984Z" fill="#DE3C4B"/>
<path d="M561.666 4.41984L549 16H619L606.334 4.41984C603.523 1.84915 599.288 1.61784 596.213 3.86696L588.723 9.34553C585.91 11.4027 582.09 11.4027 579.277 9.34553L571.787 3.86697C568.712 1.61785 564.477 1.84916 561.666 4.41984Z" fill="#DE3C4B"/>
<path d="M595.666 4.41984L583 16H653L640.334 4.41984C637.523 1.84915 633.288 1.61784 630.213 3.86696L622.723 9.34553C619.91 11.4027 616.09 11.4027 613.277 9.34553L605.787 3.86697C602.712 1.61785 598.477 1.84916 595.666 4.41984Z" fill="#DE3C4B"/>
<path d="M629.666 4.41984L617 16H687L674.334 4.41984C671.523 1.84915 667.288 1.61784 664.213 3.86696L656.723 9.34553C653.91 11.4027 650.09 11.4027 647.277 9.34553L639.787 3.86697C636.712 1.61785 632.477 1.84916 629.666 4.41984Z" fill="#DE3C4B"/>
<path d="M663.666 4.41984L651 16H721L708.334 4.41984C705.523 1.84915 701.288 1.61784 698.213 3.86696L690.723 9.34553C687.91 11.4027 684.09 11.4027 681.277 9.34553L673.787 3.86697C670.712 1.61785 666.477 1.84916 663.666 4.41984Z" fill="#DE3C4B"/>
<path d="M697.666 4.41984L685 16H755L742.334 4.41984C739.523 1.84915 735.288 1.61784 732.213 3.86696L724.723 9.34553C721.91 11.4027 718.09 11.4027 715.277 9.34553L707.787 3.86697C704.712 1.61785 700.477 1.84916 697.666 4.41984Z" fill="#DE3C4B"/>
<path d="M731.666 4.41984L719 16H789L776.334 4.41984C773.523 1.84915 769.288 1.61784 766.213 3.86696L758.723 9.34553C755.91 11.4027 752.09 11.4027 749.277 9.34553L741.787 3.86697C738.712 1.61785 734.477 1.84916 731.666 4.41984Z" fill="#DE3C4B"/>
<path d="M765.666 4.41984L753 16H823L810.334 4.41984C807.523 1.84915 803.288 1.61784 800.213 3.86696L792.723 9.34553C789.91 11.4027 786.09 11.4027 783.277 9.34553L775.787 3.86697C772.712 1.61785 768.477 1.84916 765.666 4.41984Z" fill="#DE3C4B"/>
<path d="M799.666 4.41984L787 16H857L844.334 4.41984C841.523 1.84915 837.288 1.61784 834.213 3.86696L826.723 9.34553C823.91 11.4027 820.09 11.4027 817.277 9.34553L809.787 3.86697C806.712 1.61785 802.477 1.84916 799.666 4.41984Z" fill="#DE3C4B"/>
<path d="M833.666 4.41984L821 16H891L878.334 4.41984C875.523 1.84915 871.288 1.61784 868.213 3.86696L860.723 9.34553C857.91 11.4027 854.09 11.4027 851.277 9.34553L843.787 3.86697C840.712 1.61785 836.477 1.84916 833.666 4.41984Z" fill="#DE3C4B"/>
<path d="M867.666 4.41984L855 16H925L912.334 4.41984C909.523 1.84915 905.288 1.61784 902.213 3.86696L894.723 9.34553C891.91 11.4027 888.09 11.4027 885.277 9.34553L877.787 3.86697C874.712 1.61785 870.477 1.84916 867.666 4.41984Z" fill="#DE3C4B"/>
<path d="M901.666 4.41984L889 16H959L946.334 4.41984C943.523 1.84915 939.288 1.61784 936.213 3.86696L928.723 9.34553C925.91 11.4027 922.09 11.4027 919.277 9.34553L911.787 3.86697C908.712 1.61785 904.477 1.84916 901.666 4.41984Z" fill="#DE3C4B"/>
<path d="M935.666 4.41984L923 16H993L980.334 4.41984C977.523 1.84915 973.288 1.61784 970.213 3.86696L962.723 9.34553C959.91 11.4027 956.09 11.4027 953.277 9.34553L945.787 3.86697C942.712 1.61785 938.477 1.84916 935.666 4.41984Z" fill="#DE3C4B"/>
<path d="M969.666 4.41984L957 16H1027L1014.33 4.41984C1011.52 1.84915 1007.29 1.61784 1004.21 3.86696L996.723 9.34553C993.91 11.4027 990.09 11.4027 987.277 9.34553L979.787 3.86697C976.712 1.61785 972.477 1.84916 969.666 4.41984Z" fill="#DE3C4B"/>
<path d="M1003.67 4.41984L991 16H1061L1048.33 4.41984C1045.52 1.84915 1041.29 1.61784 1038.21 3.86696L1030.72 9.34553C1027.91 11.4027 1024.09 11.4027 1021.28 9.34553L1013.79 3.86697C1010.71 1.61785 1006.48 1.84916 1003.67 4.41984Z" fill="#DE3C4B"/>
<path d="M1037.67 4.41984L1025 16H1095L1082.33 4.41984C1079.52 1.84915 1075.29 1.61784 1072.21 3.86696L1064.72 9.34553C1061.91 11.4027 1058.09 11.4027 1055.28 9.34553L1047.79 3.86697C1044.71 1.61785 1040.48 1.84916 1037.67 4.41984Z" fill="#DE3C4B"/>
<path d="M1071.67 4.41984L1059 16H1129L1116.33 4.41984C1113.52 1.84915 1109.29 1.61784 1106.21 3.86696L1098.72 9.34553C1095.91 11.4027 1092.09 11.4027 1089.28 9.34553L1081.79 3.86697C1078.71 1.61785 1074.48 1.84916 1071.67 4.41984Z" fill="#DE3C4B"/>
<path d="M1105.67 4.41984L1093 16H1163L1150.33 4.41984C1147.52 1.84915 1143.29 1.61784 1140.21 3.86696L1132.72 9.34553C1129.91 11.4027 1126.09 11.4027 1123.28 9.34553L1115.79 3.86697C1112.71 1.61785 1108.48 1.84916 1105.67 4.41984Z" fill="#DE3C4B"/>
<path d="M1139.67 4.41984L1127 16H1197L1184.33 4.41984C1181.52 1.84915 1177.29 1.61784 1174.21 3.86696L1166.72 9.34553C1163.91 11.4027 1160.09 11.4027 1157.28 9.34553L1149.79 3.86697C1146.71 1.61785 1142.48 1.84916 1139.67 4.41984Z" fill="#DE3C4B"/>
<path d="M1173.67 4.41984L1161 16H1231L1218.33 4.41984C1215.52 1.84915 1211.29 1.61784 1208.21 3.86696L1200.72 9.34553C1197.91 11.4027 1194.09 11.4027 1191.28 9.34553L1183.79 3.86697C1180.71 1.61785 1176.48 1.84916 1173.67 4.41984Z" fill="#DE3C4B"/>
<path d="M1207.67 4.41984L1195 16H1265L1252.33 4.41984C1249.52 1.84915 1245.29 1.61784 1242.21 3.86696L1234.72 9.34553C1231.91 11.4027 1228.09 11.4027 1225.28 9.34553L1217.79 3.86697C1214.71 1.61785 1210.48 1.84916 1207.67 4.41984Z" fill="#DE3C4B"/>
<path d="M1241.67 4.41984L1229 16H1299L1286.33 4.41984C1283.52 1.84915 1279.29 1.61784 1276.21 3.86696L1268.72 9.34553C1265.91 11.4027 1262.09 11.4027 1259.28 9.34553L1251.79 3.86697C1248.71 1.61785 1244.48 1.84916 1241.67 4.41984Z" fill="#DE3C4B"/>
<path d="M1275.67 4.41984L1263 16H1333L1320.33 4.41984C1317.52 1.84915 1313.29 1.61784 1310.21 3.86696L1302.72 9.34553C1299.91 11.4027 1296.09 11.4027 1293.28 9.34553L1285.79 3.86697C1282.71 1.61785 1278.48 1.84916 1275.67 4.41984Z" fill="#DE3C4B"/>
<path d="M1309.67 4.41984L1297 16H1367L1354.33 4.41984C1351.52 1.84915 1347.29 1.61784 1344.21 3.86696L1336.72 9.34553C1333.91 11.4027 1330.09 11.4027 1327.28 9.34553L1319.79 3.86697C1316.71 1.61785 1312.48 1.84916 1309.67 4.41984Z" fill="#DE3C4B"/>
<path d="M1343.67 4.41984L1331 16H1401L1388.33 4.41984C1385.52 1.84915 1381.29 1.61784 1378.21 3.86696L1370.72 9.34553C1367.91 11.4027 1364.09 11.4027 1361.28 9.34553L1353.79 3.86697C1350.71 1.61785 1346.48 1.84916 1343.67 4.41984Z" fill="#DE3C4B"/>
<path d="M1377.67 4.41984L1365 16H1435L1422.33 4.41984C1419.52 1.84915 1415.29 1.61784 1412.21 3.86696L1404.72 9.34553C1401.91 11.4027 1398.09 11.4027 1395.28 9.34553L1387.79 3.86697C1384.71 1.61785 1380.48 1.84916 1377.67 4.41984Z" fill="#DE3C4B"/>
<path d="M1411.67 4.41984L1399 16H1469L1456.33 4.41984C1453.52 1.84915 1449.29 1.61784 1446.21 3.86696L1438.72 9.34553C1435.91 11.4027 1432.09 11.4027 1429.28 9.34553L1421.79 3.86697C1418.71 1.61785 1414.48 1.84916 1411.67 4.41984Z" fill="#DE3C4B"/>
</svg>
