<svg width="18" height="17" viewBox="0 0 18 17" fill="none" xmlns="http://www.w3.org/2000/svg">
<path d="M9.62508 1.5C9.62508 1.15482 9.34526 0.875 9.00008 0.875C8.6549 0.875 8.37508 1.15482 8.37508 1.5V3.16667C8.37508 3.51184 8.6549 3.79167 9.00008 3.79167C9.34526 3.79167 9.62508 3.51184 9.62508 3.16667V1.5Z" fill="#424B54"/>
<path fill-rule="evenodd" clip-rule="evenodd" d="M17.9584 9.04712C17.9584 10.5786 17.9584 11.7916 17.8308 12.7409C17.6994 13.7179 17.4227 14.5087 16.799 15.1324C16.1754 15.756 15.3846 16.0328 14.4076 16.1641C13.4583 16.2918 12.2452 16.2918 10.7138 16.2917H7.28631C5.75489 16.2918 4.54189 16.2918 3.59256 16.1641C2.61555 16.0328 1.82475 15.756 1.20112 15.1324C0.577482 14.5087 0.300718 13.7179 0.169361 12.7409C0.0417256 11.7916 0.0417356 10.5785 0.0417483 9.04709L0.041751 8.81041C0.0417646 8.6274 0.0418367 8.44903 0.0421938 8.27521C0.0428506 7.95551 0.0444716 7.65118 0.0484663 7.36163C0.0596783 6.54895 0.0895889 5.85263 0.169361 5.2593C0.300718 4.28228 0.577482 3.49149 1.20112 2.86785C1.82475 2.24422 2.61555 1.96745 3.59256 1.83609C4.18959 1.75583 4.89091 1.72604 5.71013 1.71499C5.84783 1.71314 6.06232 1.71176 6.29057 1.71077C6.75125 1.70875 7.12508 2.08228 7.12508 2.54296V3.16673C7.12508 4.20227 7.96455 5.04173 9.00008 5.04173C10.0356 5.04173 10.8751 4.20227 10.8751 3.16673V2.5419C10.8751 2.08163 11.2484 1.70779 11.7087 1.70997C12.7827 1.71505 13.6739 1.73745 14.4076 1.83609C15.3846 1.96745 16.1754 2.24422 16.799 2.86785C17.4227 3.49149 17.6994 4.28228 17.8308 5.2593C17.9584 6.20863 17.9584 7.42161 17.9584 8.95306V9.04712ZM5.66675 7.12507C5.32157 7.12507 5.04175 7.40489 5.04175 7.75007C5.04175 8.09525 5.32157 8.37507 5.66675 8.37507H12.3334C12.6786 8.37507 12.9584 8.09525 12.9584 7.75007C12.9584 7.40489 12.6786 7.12507 12.3334 7.12507H5.66675ZM5.66675 10.0417C5.32157 10.0417 5.04175 10.3216 5.04175 10.6667C5.04175 11.0119 5.32157 11.2917 5.66675 11.2917H10.2501C10.5953 11.2917 10.8751 11.0119 10.8751 10.6667C10.8751 10.3216 10.5953 10.0417 10.2501 10.0417H5.66675Z" fill="#424B54"/>
</svg>
