<svg width="28" height="28" viewBox="0 0 28 28" fill="none" xmlns="http://www.w3.org/2000/svg">
<g id="Bold / Essentional, UI / Check Circle">
<path id="Vector" fill-rule="evenodd" clip-rule="evenodd" d="M25.6668 14.0002C25.6668 20.4435 20.4435 25.6668 14.0002 25.6668C7.55684 25.6668 2.3335 20.4435 2.3335 14.0002C2.3335 7.55684 7.55684 2.3335 14.0002 2.3335C20.4435 2.3335 25.6668 7.55684 25.6668 14.0002ZM18.7022 10.4648C19.0439 10.8065 19.0439 11.3605 18.7022 11.7022L12.8689 17.5355C12.5272 17.8773 11.9732 17.8773 11.6314 17.5355L9.29811 15.2022C8.9564 14.8605 8.9564 14.3065 9.29811 13.9648C9.63982 13.6231 10.1938 13.6231 10.5355 13.9648L12.2502 15.6794L14.8575 13.0721L17.4648 10.4648C17.8065 10.1231 18.3605 10.1231 18.7022 10.4648Z" fill="#6E7883"/>
</g>
</svg>
